<?xml version="1.0" encoding="UTF-8"?>
<!DOCTYPE svg PUBLIC "-//W3C//DTD SVG 1.1//EN" "http://www.w3.org/Graphics/SVG/1.1/DTD/svg11.dtd">
<svg xmlns="http://www.w3.org/2000/svg" version="1.1" width="512px" height="512px" style="shape-rendering:geometricPrecision; text-rendering:geometricPrecision; image-rendering:optimizeQuality; fill-rule:evenodd; clip-rule:evenodd" xmlns:xlink="http://www.w3.org/1999/xlink">
<g><path style="opacity:0.967" fill="#bec6d2" d="M 506.5,179.5 C 498.887,150.347 480.22,139.014 450.5,145.5C 429.464,113.321 400.797,103.821 364.5,117C 355.955,121.547 348.622,127.547 342.5,135C 349.636,141.135 356.469,147.635 363,154.5C 375.97,141.135 391.136,137.968 408.5,145C 416.724,148.557 423.057,154.224 427.5,162C 440.605,158.922 451.105,162.755 459,173.5C 460.341,176.022 461.174,178.689 461.5,181.5C 461.768,183.099 461.434,184.432 460.5,185.5C 454.612,171.357 444.112,166.023 429,169.5C 425.56,166.387 422.394,162.887 419.5,159C 401.89,145.372 384.224,145.206 366.5,158.5C 372.791,166.109 377.791,174.443 381.5,183.5C 408.869,172.869 435.535,174.536 461.5,188.5C 461.5,189.167 461.833,189.5 462.5,189.5C 473.442,196.442 482.775,205.109 490.5,215.5C 501.155,231.138 506.155,248.471 505.5,267.5C 496.53,225.364 470.863,200.197 428.5,192C 412.824,190.016 397.657,191.849 383,197.5C 345.756,135.136 291.256,110.636 219.5,124C 178.854,135.99 148.354,160.49 128,197.5C 84.6343,183.084 48.9676,193.751 21,229.5C 13.2792,241.255 8.11251,253.921 5.5,267.5C 5.03847,248.226 10.0385,230.559 20.5,214.5C 28.5253,204.814 37.8586,196.481 48.5,189.5C 51.1103,168.029 63.1103,158.863 84.5,162C 99.2502,140.563 118.25,135.896 141.5,148C 143.833,149.833 146.167,151.667 148.5,153.5C 154.85,147.316 161.35,141.316 168,135.5C 168.667,134.5 168.667,133.5 168,132.5C 141.615,107.019 112.781,103.852 81.5,123C 74.1038,129.398 67.7705,136.731 62.5,145C 34.1687,138.659 15.502,149.159 6.5,176.5C 7.75789,155.74 18.4246,142.573 38.5,137C 46.6132,136.282 54.6132,136.616 62.5,138C 78.3583,111.477 101.692,100.477 132.5,105C 149.4,108.696 162.9,117.53 173,131.5C 209.775,106.175 249.942,99.0081 293.5,110C 309.839,114.504 324.839,121.671 338.5,131.5C 362.998,102.766 392.331,96.5997 426.5,113C 436.4,119.899 444.566,128.399 451,138.5C 474.267,132.245 491.601,139.578 503,160.5C 505.245,166.634 506.411,172.968 506.5,179.5 Z"/></g>
<g><path style="opacity:0.997" fill="#d2dde1" d="M 20.5,214.5 C 9.34373,204.378 4.67707,191.711 6.5,176.5C 15.502,149.159 34.1687,138.659 62.5,145C 67.7705,136.731 74.1038,129.398 81.5,123C 112.781,103.852 141.615,107.019 168,132.5C 168.667,133.5 168.667,134.5 168,135.5C 161.35,141.316 154.85,147.316 148.5,153.5C 146.167,151.667 143.833,149.833 141.5,148C 118.25,135.896 99.2502,140.563 84.5,162C 63.1103,158.863 51.1103,168.029 48.5,189.5C 37.8586,196.481 28.5253,204.814 20.5,214.5 Z"/></g>
<g><path style="opacity:0.997" fill="#d2dde1" d="M 506.5,179.5 C 507.118,194.255 501.785,206.255 490.5,215.5C 482.775,205.109 473.442,196.442 462.5,189.5C 462.806,186.615 462.473,183.948 461.5,181.5C 461.174,178.689 460.341,176.022 459,173.5C 451.105,162.755 440.605,158.922 427.5,162C 423.057,154.224 416.724,148.557 408.5,145C 391.136,137.968 375.97,141.135 363,154.5C 356.469,147.635 349.636,141.135 342.5,135C 348.622,127.547 355.955,121.547 364.5,117C 400.797,103.821 429.464,113.321 450.5,145.5C 480.22,139.014 498.887,150.347 506.5,179.5 Z"/></g>
<g><path style="opacity:0.997" fill="#d2dde1" d="M 505.5,267.5 C 508.902,315.222 488.569,348.055 444.5,366C 416.201,374.318 389.701,370.484 365,354.5C 326.468,397.677 278.635,413.51 221.5,402C 191.224,394.121 166.057,378.288 146,354.5C 109.372,376.762 73.5391,375.595 38.5,351C 12.8648,328.904 1.86478,301.07 5.5,267.5C 8.11251,253.921 13.2792,241.255 21,229.5C 48.9676,193.751 84.6343,183.084 128,197.5C 148.354,160.49 178.854,135.99 219.5,124C 291.256,110.636 345.756,135.136 383,197.5C 397.657,191.849 412.824,190.016 428.5,192C 470.863,200.197 496.53,225.364 505.5,267.5 Z"/></g>
<g><path style="opacity:1" fill="#d2dde1" d="M 111.5,148.5 C 121.365,147.706 130.699,149.54 139.5,154C 141.585,155.041 143.252,156.541 144.5,158.5C 138.415,166.334 133.081,174.667 128.5,183.5C 101.796,172.95 75.9625,174.617 51,188.5C 53.2985,175.879 60.9651,169.212 74,168.5C 77.3328,168.423 80.4995,169.09 83.5,170.5C 90.217,159.777 99.5503,152.444 111.5,148.5 Z"/></g>
<g><path style="opacity:1" fill="#d2dde1" d="M 460.5,185.5 C 461.11,186.391 461.443,187.391 461.5,188.5C 435.535,174.536 408.869,172.869 381.5,183.5C 377.791,174.443 372.791,166.109 366.5,158.5C 384.224,145.206 401.89,145.372 419.5,159C 422.394,162.887 425.56,166.387 429,169.5C 444.112,166.023 454.612,171.357 460.5,185.5 Z"/></g>
<g><path style="opacity:1" fill="#c5ced7" d="M 461.5,181.5 C 462.473,183.948 462.806,186.615 462.5,189.5C 461.833,189.5 461.5,189.167 461.5,188.5C 461.443,187.391 461.11,186.391 460.5,185.5C 461.434,184.432 461.768,183.099 461.5,181.5 Z"/></g>
<g><path style="opacity:1" fill="#bec6d2" d="M 243.5,187.5 C 283.535,185.263 313.702,201.263 334,235.5C 365.419,226.413 389.085,236.079 405,264.5C 409.202,274.069 410.535,284.069 409,294.5C 401.006,261.081 379.839,245.581 345.5,248C 341.23,248.257 337.23,249.424 333.5,251.5C 310.398,212.286 276.398,197.12 231.5,206C 207.656,213.353 189.656,227.853 177.5,249.5C 144.082,240.794 119.582,251.794 104,282.5C 102.844,286.123 101.844,289.789 101,293.5C 98.9813,268.035 109.148,249.201 131.5,237C 146.143,230.324 160.977,229.824 176,235.5C 191.438,209.534 213.938,193.534 243.5,187.5 Z"/></g>
</svg>
